<?xml version="1.0" encoding="UTF-8"?>
<svg viewBox="0 0 48 48" xmlns="http://www.w3.org/2000/svg" xmlns:xlink="http://www.w3.org/1999/xlink">
 <defs>
  <filter id="p" x="-.1627" y="-.093406" width="1.3254" height="1.1868">
   <feGaussianBlur stdDeviation="0.362437"/>
  </filter>
  <filter id="o" x="-.07863" y="-.18155" width="1.1573" height="1.3631">
   <feGaussianBlur stdDeviation="0.362437"/>
  </filter>
  <filter id="q" x="-.13295" y="-.099411" width="1.2659" height="1.1988">
   <feGaussianBlur stdDeviation="0.362437"/>
  </filter>
  <filter id="r" x="-.18584" y="-.079077" width="1.3717" height="1.1582">
   <feGaussianBlur stdDeviation="0.362437"/>
  </filter>
  <linearGradient id="a">
   <stop stop-color="#7ed249" offset="0"/>
   <stop stop-color="#286325" offset="1"/>
  </linearGradient>
  <linearGradient id="z" x1=".83602" x2=".22438" y1="1" y2=".24847" xlink:href="#a"/>
  <linearGradient id="aa" x1="-2.3543" x2="1.8201" y1=".37233" y2=".5" xlink:href="#a"/>
  <linearGradient id="y" x1="2.2267" x2="-1.0872" y1=".33305" y2=".35882" xlink:href="#a"/>
  <linearGradient id="s" x1="1" x2=".60792" y1=".5" y2=".93098" xlink:href="#a"/>
  <linearGradient id="x" x1="-.21945" x2=".82814" y1=".58245" y2=".06788" xlink:href="#a"/>
  <linearGradient id="t" x1="-.34783" x2=".8727" y1=".34764" y2="1.1944" xlink:href="#a"/>
  <linearGradient id="v" x1="-.12979" x2=".85748" y1="-.039275" y2="1.2001" xlink:href="#a"/>
  <linearGradient id="w" x1="2.9513" x2="-1.0842" y1="1.0287" y2="-.026655" xlink:href="#a"/>
  <linearGradient id="u" x1="1.8449" x2="-.61029" y1=".51004" y2=".39075" xlink:href="#a"/>
 </defs>
 <path d="m23.633 23.73c4.717 6.6633 13.365 14.698 20.54 18.178 0.76025-1.5632 1.1306-2.9166 0.82764-3.9078-7.4702-0.95251-13.979-9.1462-19.409-15.115-0.88582-1.0444-2.313-0.53607-1.9585 0.8445z" fill="url(#s)"/>
 <path d="m24.959 23.597c-2.7408 4.9064-8.129 6.5511-9.5741 11.15-1.5693 4.9948 0.48219 9.9463 8.2267 6.7864 6.271 4.0721 10.702-1.4037 9.3349-7.8776-0.7422-3.515-7.3199-6.7347-7.9876-10.059z" fill="url(#z)"/>
 <path d="m24.706 25.787c0.92209 5.0266 0.23524 9.7351-0.84211 14.316 0.15599 0 6.0527-5.8105 0.84211-14.316z" fill="url(#aa)"/>
 <g transform="matrix(.028213 -.9996 -.9996 -.028213 45.73 51.48)">
  <path d="m27.255 21.83c-3.4987 1.1169-8.2682 7.7107-9.7133 12.31-1.5693 4.9948 0.48219 9.9463 8.2267 6.7864 5.7039 3.7039 9.9333-0.87275 9.6534-6.8465-0.1949-4.1597-3.868-8.0007-8.1669-12.25z" fill="url(#t)"/>
  <path d="m26.863 25.179c0.92209 5.0266 0.23524 9.7351-0.84211 14.316 0.15599 0 6.0527-5.8105 0.84211-14.316z" fill="url(#u)"/>
 </g>
 <g transform="matrix(-.99819 .060081 -.060081 -.99819 53.445 45.028)">
  <path d="m27.256 22.996c-3.9937 5.1365-8.2688 6.5444-9.7138 11.144-1.5693 4.9948 0.48219 9.9463 8.2267 6.7864 5.9984 3.8773 11.079-0.71008 9.7918-6.7969-0.77412-3.6616-4.8642-5.442-8.3047-11.133z" fill="url(#v)"/>
  <path d="m26.99 25.355c-1.5184 4.8798-1.4012 9.6366-0.88109 14.314-0.15486-0.018711-5.3121-6.4946 0.88109-14.314z" fill="url(#w)"/>
 </g>
 <g transform="matrix(-.0001147 -1 1 -.0001147 2.4046 50.566)">
  <path d="m26.948 22.316c-2.5726 3.3907-7.9608 7.2248-9.4058 11.824-1.5693 4.9948 0.48219 9.9463 8.2267 6.7864 6.1976 4.0244 10.024-1.8059 8.7567-8.3785-0.71108-3.6886-4.4486-7.5224-7.5775-10.232z" fill="url(#x)"/>
  <path d="m26.863 25.179c0.92209 5.0266 0.23524 9.7351-0.84211 14.316 0.15599 0 6.0527-5.8105 0.84211-14.316z" fill="url(#y)"/>
 </g>
 <g fill="#fff" fill-opacity=".665">
  <path d="m21.5 5c-5.7856 2.4194-4.8315 5.9316-4.6875 9.3125 0 0-3.25-8.25 4.6875-9.3125z" filter="url(#p)"/>
  <path d="m11.375 15.5c-4.1299 1.1769-6.8401 3.4293-5.5 8.75-0.13451 0-4.4428-7.8125 5.5-8.75z" filter="url(#q)"/>
  <path d="m16.062 41.188c-1.1857-4.7216 1.5887-9.6115 4-11 0 0-6.8125 2.5625-4 11z" filter="url(#r)"/>
  <path d="m27.75 20.938c1.7191-1.2901 5.3947-3.8487 11.062-4.5-0.55211-0.82817-7.2888-0.05817-11.062 4.5z" filter="url(#o)"/>
 </g>
</svg>
